# xmcd
#
# Track frame offsets:
#	150
#	22007
#	43190
#	59120
#	73715
#	98148
#	113994
#	131255
#	144703
#	158985
#	173034
#	188658
#	207388
#	230527
#	250271
#	262089
#
# Disc length: 3926 seconds
# Revision: 0
# Processed by: cddbd v1.5.2PL0 Copyright (c) Steve Scherf et al.
# Submitted via: dBpowerAMP V12.0
#
DISCID=f30f5410
DTITLE=Stringybark McDowell and Molly Coddlecream - Madder Than A Backward Flying Crow
DYEAR=2015
DGENRE=Blues Riverbilly
TTITLE0=Uncle Dynamite
TTITLE1=Some Lovers
TTITLE2=The System is Broken
TTITLE3=Rained In Where Recluses Live
TTITLE4=Sinner Man
TTITLE5=Change is what I Need
TTITLE6=Madder than a Backward Flying Crow
TTITLE7=Aberdeen Mississippi
TTITLE8=I Can't Fight
TTITLE9=Careless Love
TTITLE10=His Spirit
TTITLE11=Honest John
TTITLE12=Hey Hey My My
TTITLE13=Sacred Place
TTITLE14=Dumb and Fucked
TTITLE15=Alone and Foresaken
EXTD=
EXTT0=
EXTT1=
EXTT2=
EXTT3=
EXTT4=
EXTT5=
EXTT6=
EXTT7=
EXTT8=
EXTT9=
EXTT10=
EXTT11=
EXTT12=
EXTT13=
EXTT14=
EXTT15=
PLAYORDER=
